<?xml version="1.0" encoding="UTF-8" standalone="no"?>
<svg viewBox="0 0 1280 720" xmlns="http://www.w3.org/2000/svg" xmlns:xlink="http://www.w3.org/1999/xlink">

<title>Gnuplot</title>
<desc>Produced by GNUPLOT 5.4 patchlevel 2 </desc>

<g id="gnuplot_canvas">

<rect x="0" y="0" width="1280" height="720" fill="none"/>
<defs>

	<circle id="gpDot" r="0.5" stroke-width="0.5" stroke="currentColor"/>
	<path id="gpPt0" stroke-width="0.222" stroke="currentColor" d="M-1,0 h2 M0,-1 v2"/>
	<path id="gpPt1" stroke-width="0.222" stroke="currentColor" d="M-1,-1 L1,1 M1,-1 L-1,1"/>
	<path id="gpPt2" stroke-width="0.222" stroke="currentColor" d="M-1,0 L1,0 M0,-1 L0,1 M-1,-1 L1,1 M-1,1 L1,-1"/>
	<rect id="gpPt3" stroke-width="0.222" stroke="currentColor" x="-1" y="-1" width="2" height="2"/>
	<rect id="gpPt4" stroke-width="0.222" stroke="currentColor" fill="currentColor" x="-1" y="-1" width="2" height="2"/>
	<circle id="gpPt5" stroke-width="0.222" stroke="currentColor" cx="0" cy="0" r="1"/>
	<use xlink:href="#gpPt5" id="gpPt6" fill="currentColor" stroke="none"/>
	<path id="gpPt7" stroke-width="0.222" stroke="currentColor" d="M0,-1.33 L-1.33,0.67 L1.33,0.67 z"/>
	<use xlink:href="#gpPt7" id="gpPt8" fill="currentColor" stroke="none"/>
	<use xlink:href="#gpPt7" id="gpPt9" stroke="currentColor" transform="rotate(180)"/>
	<use xlink:href="#gpPt9" id="gpPt10" fill="currentColor" stroke="none"/>
	<use xlink:href="#gpPt3" id="gpPt11" stroke="currentColor" transform="rotate(45)"/>
	<use xlink:href="#gpPt11" id="gpPt12" fill="currentColor" stroke="none"/>
	<path id="gpPt13" stroke-width="0.222" stroke="currentColor" d="M0,1.330 L1.265,0.411 L0.782,-1.067 L-0.782,-1.076 L-1.265,0.411 z"/>
	<use xlink:href="#gpPt13" id="gpPt14" fill="currentColor" stroke="none"/>
	<filter id="textbox" filterUnits="objectBoundingBox" x="0" y="0" height="1" width="1">
	  <feFlood flood-color="white" flood-opacity="1" result="bgnd"/>
	  <feComposite in="SourceGraphic" in2="bgnd" operator="atop"/>
	</filter>
	<filter id="greybox" filterUnits="objectBoundingBox" x="0" y="0" height="1" width="1">
	  <feFlood flood-color="lightgrey" flood-opacity="1" result="grey"/>
	  <feComposite in="SourceGraphic" in2="grey" operator="atop"/>
	</filter>
</defs>
<g fill="none" color="white" stroke="currentColor" stroke-width="1.00" stroke-linecap="butt" stroke-linejoin="miter">
</g>
<g fill="none" color="black" stroke="currentColor" stroke-width="1.00" stroke-linecap="butt" stroke-linejoin="miter">
	<path stroke="black" d="M64.14,662.40 L73.14,662.40  "/>	<g transform="translate(55.75,666.30)" stroke="none" fill="black" font-family="Helvetica" font-size="12.00" text-anchor="end">
		<text><tspan font-family="Helvetica"> 0</tspan></text>
	</g>
</g>
<g fill="none" color="black" stroke="currentColor" stroke-width="1.00" stroke-linecap="butt" stroke-linejoin="miter">
	<path stroke="black" d="M64.14,574.23 L73.14,574.23  "/>	<g transform="translate(55.75,578.13)" stroke="none" fill="black" font-family="Helvetica" font-size="12.00" text-anchor="end">
		<text><tspan font-family="Helvetica"> 5</tspan></text>
	</g>
</g>
<g fill="none" color="black" stroke="currentColor" stroke-width="1.00" stroke-linecap="butt" stroke-linejoin="miter">
	<path stroke="black" d="M64.14,486.06 L73.14,486.06  "/>	<g transform="translate(55.75,489.96)" stroke="none" fill="black" font-family="Helvetica" font-size="12.00" text-anchor="end">
		<text><tspan font-family="Helvetica"> 10</tspan></text>
	</g>
</g>
<g fill="none" color="black" stroke="currentColor" stroke-width="1.00" stroke-linecap="butt" stroke-linejoin="miter">
	<path stroke="black" d="M64.14,397.88 L73.14,397.88  "/>	<g transform="translate(55.75,401.78)" stroke="none" fill="black" font-family="Helvetica" font-size="12.00" text-anchor="end">
		<text><tspan font-family="Helvetica"> 15</tspan></text>
	</g>
</g>
<g fill="none" color="black" stroke="currentColor" stroke-width="1.00" stroke-linecap="butt" stroke-linejoin="miter">
	<path stroke="black" d="M64.14,309.71 L73.14,309.71  "/>	<g transform="translate(55.75,313.61)" stroke="none" fill="black" font-family="Helvetica" font-size="12.00" text-anchor="end">
		<text><tspan font-family="Helvetica"> 20</tspan></text>
	</g>
</g>
<g fill="none" color="black" stroke="currentColor" stroke-width="1.00" stroke-linecap="butt" stroke-linejoin="miter">
	<path stroke="black" d="M64.14,221.54 L73.14,221.54  "/>	<g transform="translate(55.75,225.44)" stroke="none" fill="black" font-family="Helvetica" font-size="12.00" text-anchor="end">
		<text><tspan font-family="Helvetica"> 25</tspan></text>
	</g>
</g>
<g fill="none" color="black" stroke="currentColor" stroke-width="1.00" stroke-linecap="butt" stroke-linejoin="miter">
	<path stroke="black" d="M64.14,133.37 L73.14,133.37  "/>	<g transform="translate(55.75,137.27)" stroke="none" fill="black" font-family="Helvetica" font-size="12.00" text-anchor="end">
		<text><tspan font-family="Helvetica"> 30</tspan></text>
	</g>
</g>
<g fill="none" color="black" stroke="currentColor" stroke-width="1.00" stroke-linecap="butt" stroke-linejoin="miter">
	<path stroke="black" d="M122.70,662.40 L122.70,653.40  "/>	<g transform="translate(122.70,684.30)" stroke="none" fill="black" font-family="Helvetica" font-size="12.00" text-anchor="middle">
		<text><tspan font-family="Helvetica"> 1.5</tspan></text>
	</g>
</g>
<g fill="none" color="black" stroke="currentColor" stroke-width="1.00" stroke-linecap="butt" stroke-linejoin="miter">
	<path stroke="black" d="M242.41,662.40 L242.41,653.40  "/>	<g transform="translate(242.41,684.30)" stroke="none" fill="black" font-family="Helvetica" font-size="12.00" text-anchor="middle">
		<text><tspan font-family="Helvetica"> 2</tspan></text>
	</g>
</g>
<g fill="none" color="black" stroke="currentColor" stroke-width="1.00" stroke-linecap="butt" stroke-linejoin="miter">
	<path stroke="black" d="M362.13,662.40 L362.13,653.40  "/>	<g transform="translate(362.13,684.30)" stroke="none" fill="black" font-family="Helvetica" font-size="12.00" text-anchor="middle">
		<text><tspan font-family="Helvetica"> 2.5</tspan></text>
	</g>
</g>
<g fill="none" color="black" stroke="currentColor" stroke-width="1.00" stroke-linecap="butt" stroke-linejoin="miter">
	<path stroke="black" d="M481.84,662.40 L481.84,653.40  "/>	<g transform="translate(481.84,684.30)" stroke="none" fill="black" font-family="Helvetica" font-size="12.00" text-anchor="middle">
		<text><tspan font-family="Helvetica"> 3</tspan></text>
	</g>
</g>
<g fill="none" color="black" stroke="currentColor" stroke-width="1.00" stroke-linecap="butt" stroke-linejoin="miter">
	<path stroke="black" d="M601.55,662.40 L601.55,653.40  "/>	<g transform="translate(601.55,684.30)" stroke="none" fill="black" font-family="Helvetica" font-size="12.00" text-anchor="middle">
		<text><tspan font-family="Helvetica"> 3.5</tspan></text>
	</g>
</g>
<g fill="none" color="black" stroke="currentColor" stroke-width="1.00" stroke-linecap="butt" stroke-linejoin="miter">
	<path stroke="black" d="M721.26,662.40 L721.26,653.40  "/>	<g transform="translate(721.26,684.30)" stroke="none" fill="black" font-family="Helvetica" font-size="12.00" text-anchor="middle">
		<text><tspan font-family="Helvetica"> 4</tspan></text>
	</g>
</g>
<g fill="none" color="black" stroke="currentColor" stroke-width="1.00" stroke-linecap="butt" stroke-linejoin="miter">
	<path stroke="black" d="M840.97,662.40 L840.97,653.40  "/>	<g transform="translate(840.97,684.30)" stroke="none" fill="black" font-family="Helvetica" font-size="12.00" text-anchor="middle">
		<text><tspan font-family="Helvetica"> 4.5</tspan></text>
	</g>
</g>
<g fill="none" color="black" stroke="currentColor" stroke-width="1.00" stroke-linecap="butt" stroke-linejoin="miter">
	<path stroke="black" d="M960.69,662.40 L960.69,653.40  "/>	<g transform="translate(960.69,684.30)" stroke="none" fill="black" font-family="Helvetica" font-size="12.00" text-anchor="middle">
		<text><tspan font-family="Helvetica"> 5</tspan></text>
	</g>
</g>
<g fill="none" color="black" stroke="currentColor" stroke-width="1.00" stroke-linecap="butt" stroke-linejoin="miter">
	<path stroke="black" d="M1001.29,662.40 L992.29,662.40  "/>	<g transform="translate(1009.68,666.30)" stroke="none" fill="black" font-family="Helvetica" font-size="12.00" text-anchor="start">
		<text><tspan font-family="Helvetica"> 0</tspan></text>
	</g>
</g>
<g fill="none" color="black" stroke="currentColor" stroke-width="1.00" stroke-linecap="butt" stroke-linejoin="miter">
	<path stroke="black" d="M1001.29,575.49 L992.29,575.49  "/>	<g transform="translate(1009.68,579.39)" stroke="none" fill="black" font-family="Helvetica" font-size="12.00" text-anchor="start">
		<text><tspan font-family="Helvetica"> 0.2</tspan></text>
	</g>
</g>
<g fill="none" color="black" stroke="currentColor" stroke-width="1.00" stroke-linecap="butt" stroke-linejoin="miter">
	<path stroke="black" d="M1001.29,488.57 L992.29,488.57  "/>	<g transform="translate(1009.68,492.47)" stroke="none" fill="black" font-family="Helvetica" font-size="12.00" text-anchor="start">
		<text><tspan font-family="Helvetica"> 0.4</tspan></text>
	</g>
</g>
<g fill="none" color="black" stroke="currentColor" stroke-width="1.00" stroke-linecap="butt" stroke-linejoin="miter">
	<path stroke="black" d="M1001.29,401.66 L992.29,401.66  "/>	<g transform="translate(1009.68,405.56)" stroke="none" fill="black" font-family="Helvetica" font-size="12.00" text-anchor="start">
		<text><tspan font-family="Helvetica"> 0.6</tspan></text>
	</g>
</g>
<g fill="none" color="black" stroke="currentColor" stroke-width="1.00" stroke-linecap="butt" stroke-linejoin="miter">
	<path stroke="black" d="M1001.29,314.75 L992.29,314.75  "/>	<g transform="translate(1009.68,318.65)" stroke="none" fill="black" font-family="Helvetica" font-size="12.00" text-anchor="start">
		<text><tspan font-family="Helvetica"> 0.8</tspan></text>
	</g>
</g>
<g fill="none" color="black" stroke="currentColor" stroke-width="1.00" stroke-linecap="butt" stroke-linejoin="miter">
	<path stroke="black" d="M1001.29,227.84 L992.29,227.84  "/>	<g transform="translate(1009.68,231.74)" stroke="none" fill="black" font-family="Helvetica" font-size="12.00" text-anchor="start">
		<text><tspan font-family="Helvetica"> 1</tspan></text>
	</g>
</g>
<g fill="none" color="black" stroke="currentColor" stroke-width="1.00" stroke-linecap="butt" stroke-linejoin="miter">
	<path stroke="black" d="M1001.29,140.92 L992.29,140.92  "/>	<g transform="translate(1009.68,144.82)" stroke="none" fill="black" font-family="Helvetica" font-size="12.00" text-anchor="start">
		<text><tspan font-family="Helvetica"> 1.2</tspan></text>
	</g>
</g>
<g fill="none" color="black" stroke="currentColor" stroke-width="1.00" stroke-linecap="butt" stroke-linejoin="miter">
	<path stroke="black" d="M1001.29,54.01 L992.29,54.01  "/>	<g transform="translate(1009.68,57.91)" stroke="none" fill="black" font-family="Helvetica" font-size="12.00" text-anchor="start">
		<text><tspan font-family="Helvetica"> 1.4</tspan></text>
	</g>
</g>
<g fill="none" color="black" stroke="currentColor" stroke-width="1.00" stroke-linecap="butt" stroke-linejoin="miter">
</g>
<g fill="none" color="black" stroke="currentColor" stroke-width="1.00" stroke-linecap="butt" stroke-linejoin="miter">
	<path stroke="black" d="M64.14,54.01 L64.14,662.40 L1001.29,662.40 L1001.29,54.01 L64.14,54.01 Z  "/></g>
<g fill="none" color="black" stroke="currentColor" stroke-width="1.00" stroke-linecap="butt" stroke-linejoin="miter">
	<g transform="translate(19.18,358.21) rotate(270)" stroke="none" fill="black" font-family="Helvetica" font-size="12.00" text-anchor="middle">
		<text><tspan font-family="Helvetica">Iterations (x 10</tspan><tspan font-family="Helvetica" font-size="9.6" dy="-6.00px">3</tspan><tspan font-family="Helvetica" font-size="12.0" dy="6.00px">)</tspan></text>
	</g>
</g>
<g fill="none" color="black" stroke="currentColor" stroke-width="1.00" stroke-linecap="butt" stroke-linejoin="miter">
	<g transform="translate(1064.53,358.21) rotate(270)" stroke="none" fill="black" font-family="Helvetica" font-size="12.00" text-anchor="middle">
		<text><tspan font-family="Helvetica">Density (a.u.)</tspan></text>
	</g>
</g>
<g fill="none" color="black" stroke="currentColor" stroke-width="1.00" stroke-linecap="butt" stroke-linejoin="miter">
	<g transform="translate(532.71,711.30)" stroke="none" fill="black" font-family="Helvetica" font-size="12.00" text-anchor="middle">
		<text><tspan font-family="Helvetica">Average time (µs)</tspan></text>
	</g>
</g>
<g fill="none" color="black" stroke="currentColor" stroke-width="1.00" stroke-linecap="butt" stroke-linejoin="miter">
</g>
	<g id="gnuplot_plot_1"><title>PDF</title>
<g fill="none" color="black" stroke="currentColor" stroke-width="1.00" stroke-linecap="butt" stroke-linejoin="miter">
	<g transform="translate(1145.75,66.91)" stroke="none" fill="black" font-family="Helvetica" font-size="12.00" text-anchor="start">
		<text><tspan font-family="Helvetica">PDF</tspan></text>
	</g>
</g>
<g fill="none" color="black" stroke="currentColor" stroke-width="1.00" stroke-linecap="butt" stroke-linejoin="miter">
	<g stroke="none" shape-rendering="crispEdges">
		<polygon fill="rgb( 31, 120, 180)" fill-opacity="0.250000" points="1094.80,67.51 1137.36,67.51 1137.36,58.51 1094.80,58.51 "/>
		<polygon fill="rgb( 31, 120, 180)" fill-opacity="0.250000" points="64.14,661.32 66.02,661.13 67.90,660.92 69.77,660.67 71.65,660.39 73.53,660.07 75.41,659.70 77.29,659.28 79.16,658.81 81.04,658.27 82.92,657.65 84.80,656.96 86.68,656.19 88.55,655.32 90.43,654.34 92.31,653.25 94.19,652.03 96.07,650.68 97.95,649.18 99.82,647.51 101.70,645.68 103.58,643.66 105.46,641.44 107.34,639.00 109.21,636.34 111.09,633.43 112.97,630.27 114.85,626.84 116.73,623.12 118.60,619.11 120.48,614.78 122.36,610.13 124.24,605.14 126.12,599.80 127.99,594.10 129.87,588.03 131.75,581.59 133.63,574.76 135.51,567.55 137.38,559.94 139.26,551.94 141.14,543.55 143.02,534.77 144.90,525.61 146.77,516.07 148.65,506.16 150.53,495.89 152.41,485.28 154.29,474.35 156.16,463.11 158.04,451.58 159.92,439.79 161.80,427.77 163.68,415.53 165.56,403.12 167.43,390.55 169.31,377.87 171.19,365.10 173.07,352.29 174.95,339.46 176.82,326.66 178.70,313.91 180.58,301.26 182.46,288.73 184.34,276.38 186.21,264.23 188.09,252.31 189.97,240.66 191.85,229.32 193.73,218.30 195.60,207.64 197.48,197.37 199.36,187.51 201.24,178.07 203.12,169.09 204.99,160.57 206.87,152.54 208.75,145.00 210.63,137.97 212.51,131.45 214.38,125.45 216.26,119.97 218.14,115.02 220.02,110.58 221.90,106.67 223.77,103.27 225.65,100.37 227.53,97.98 229.41,96.08 231.29,94.66 233.17,93.71 235.04,93.22 236.92,93.17 238.80,93.55 240.68,94.35 242.56,95.55 244.43,97.14 246.31,99.10 248.19,101.42 250.07,104.08 251.95,107.07 253.82,110.37 255.70,113.97 257.58,117.85 259.46,122.00 261.34,126.41 263.21,131.06 265.09,135.94 266.97,141.04 268.85,146.34 270.73,151.83 272.60,157.49 274.48,163.32 276.36,169.31 278.24,175.44 280.12,181.69 281.99,188.07 283.87,194.56 285.75,201.14 287.63,207.81 289.51,214.56 291.38,221.38 293.26,228.25 295.14,235.17 297.02,242.14 298.90,249.13 300.78,256.14 302.65,263.17 304.53,270.21 306.41,277.24 308.29,284.27 310.17,291.28 312.04,298.27 313.92,305.24 315.80,312.17 317.68,319.06 319.56,325.90 321.43,332.70 323.31,339.44 325.19,346.13 327.07,352.76 328.95,359.32 330.82,365.81 332.70,372.22 334.58,378.57 336.46,384.83 338.34,391.01 340.21,397.11 342.09,403.13 343.97,409.05 345.85,414.89 347.73,420.63 349.60,426.28 351.48,431.84 353.36,437.30 355.24,442.66 357.12,447.92 358.99,453.08 360.87,458.14 362.75,463.10 364.63,467.96 366.51,472.72 368.39,477.37 370.26,481.92 372.14,486.37 374.02,490.71 375.90,494.96 377.78,499.10 379.65,503.14 381.53,507.08 383.41,510.92 385.29,514.66 387.17,518.31 389.04,521.86 390.92,525.31 392.80,528.68 394.68,531.95 396.56,535.14 398.43,538.24 400.31,541.26 402.19,544.20 404.07,547.06 405.95,549.85 407.82,552.57 409.70,555.22 411.58,557.80 413.46,560.32 415.34,562.79 417.21,565.19 419.09,567.55 420.97,569.87 422.85,572.13 424.73,574.36 426.60,576.55 428.48,578.71 430.36,580.83 432.24,582.93 434.12,585.00 436.00,587.05 437.87,589.08 439.75,591.09 441.63,593.09 443.51,595.07 445.39,597.04 447.26,598.99 449.14,600.93 451.02,602.87 452.90,604.79 454.78,606.70 456.65,608.60 458.53,610.48 460.41,612.36 462.29,614.22 464.17,616.06 466.04,617.88 467.92,619.69 469.80,621.47 471.68,623.23 473.56,624.97 475.43,626.68 477.31,628.35 479.19,630.00 481.07,631.61 482.95,633.19 484.82,634.73 486.70,636.23 488.58,637.68 490.46,639.10 492.34,640.46 494.21,641.79 496.09,643.06 497.97,644.29 499.85,645.47 501.73,646.60 503.61,647.68 505.48,648.71 507.36,649.69 509.24,650.63 511.12,651.51 513.00,652.35 514.87,653.14 516.75,653.88 518.63,654.58 520.51,655.24 522.39,655.85 524.26,656.42 526.14,656.95 528.02,657.45 529.90,657.91 531.78,658.33 533.65,658.72 535.53,659.08 537.41,659.41 539.29,659.72 541.17,660.00 543.04,660.25 544.92,660.48 546.80,660.69 548.68,660.88 550.56,661.05 552.43,661.20 554.31,661.34 556.19,661.47 558.07,661.58 559.95,661.68 561.82,661.77 563.70,661.85 565.58,661.92 567.46,661.98 569.34,662.04 571.22,662.08 573.09,662.13 574.97,662.16 576.85,662.20 578.73,662.22 580.61,662.25 582.48,662.27 584.36,662.29 586.24,662.31 588.12,662.32 590.00,662.33 591.87,662.34 593.75,662.35 595.63,662.36 597.51,662.37 599.39,662.37 601.26,662.38 603.14,662.38 605.02,662.38 606.90,662.39 608.78,662.39 610.65,662.39 612.53,662.39 614.41,662.39 616.29,662.39 618.17,662.40 620.04,662.40 621.92,662.40 623.80,662.40 625.68,662.40 627.56,662.40 629.43,662.40 631.31,662.40 633.19,662.40 635.07,662.40 636.95,662.40 638.83,662.40 640.70,662.40 642.58,662.40 644.46,662.40 646.34,662.40 648.22,662.40 650.09,662.40 651.97,662.40 653.85,662.40 655.73,662.40 657.61,662.40 659.48,662.40 661.36,662.40 663.24,662.40 665.12,662.40 667.00,662.40 668.87,662.40 670.75,662.40 672.63,662.40 674.51,662.40 676.39,662.40 678.26,662.40 680.14,662.40 682.02,662.40 683.90,662.40 685.78,662.40 687.65,662.40 689.53,662.40 691.41,662.40 693.29,662.40 695.17,662.40 697.04,662.40 698.92,662.40 700.80,662.40 702.68,662.40 704.56,662.40 706.44,662.40 708.31,662.40 710.19,662.40 712.07,662.40 713.95,662.40 715.83,662.40 717.70,662.40 719.58,662.40 721.46,662.40 723.34,662.40 725.22,662.40 727.09,662.40 728.97,662.40 730.85,662.40 732.73,662.40 734.61,662.40 736.48,662.39 738.36,662.39 740.24,662.39 742.12,662.39 744.00,662.39 745.87,662.39 747.75,662.38 749.63,662.38 751.51,662.38 753.39,662.37 755.26,662.37 757.14,662.36 759.02,662.35 760.90,662.35 762.78,662.34 764.65,662.33 766.53,662.31 768.41,662.30 770.29,662.28 772.17,662.27 774.05,662.25 775.92,662.22 777.80,662.20 779.68,662.17 781.56,662.13 783.44,662.10 785.31,662.05 787.19,662.01 789.07,661.95 790.95,661.90 792.83,661.83 794.70,661.76 796.58,661.68 798.46,661.60 800.34,661.50 802.22,661.40 804.09,661.29 805.97,661.17 807.85,661.04 809.73,660.90 811.61,660.75 813.48,660.59 815.36,660.41 817.24,660.23 819.12,660.03 821.00,659.83 822.87,659.61 824.75,659.38 826.63,659.13 828.51,658.88 830.39,658.62 832.26,658.35 834.14,658.06 836.02,657.77 837.90,657.48 839.78,657.17 841.66,656.86 843.53,656.54 845.41,656.23 847.29,655.91 849.17,655.59 851.05,655.27 852.92,654.95 854.80,654.64 856.68,654.33 858.56,654.04 860.44,653.75 862.31,653.47 864.19,653.21 866.07,652.96 867.95,652.73 869.83,652.52 871.70,652.32 873.58,652.15 875.46,652.00 877.34,651.87 879.22,651.76 881.09,651.68 882.97,651.63 884.85,651.60 886.73,651.60 888.61,651.62 890.48,651.67 892.36,651.74 894.24,651.84 896.12,651.96 898.00,652.10 899.87,652.27 901.75,652.46 903.63,652.67 905.51,652.89 907.39,653.14 909.27,653.40 911.14,653.67 913.02,653.95 914.90,654.25 916.78,654.55 918.66,654.86 920.53,655.18 922.41,655.49 924.29,655.82 926.17,656.14 928.05,656.45 929.92,656.77 931.80,657.08 933.68,657.39 935.56,657.69 937.44,657.98 939.31,658.27 941.19,658.54 943.07,658.81 944.95,659.06 946.83,659.31 948.70,659.54 950.58,659.76 952.46,659.97 954.34,660.17 956.22,660.36 958.09,660.54 959.97,660.70 961.85,660.86 963.73,661.00 965.61,661.13 967.48,661.26 969.36,661.37 971.24,661.48 973.12,661.57 975.00,661.66 976.88,661.74 978.75,661.81 980.63,661.88 982.51,661.94 984.39,661.99 986.27,662.04 988.14,662.08 990.02,662.12 991.90,662.16 993.78,662.19 995.66,662.22 997.53,662.24 999.41,662.26 1001.29,662.28 1001.29,662.40 999.41,662.40 997.53,662.40 995.66,662.40 993.78,662.40 991.90,662.40 990.02,662.40 988.14,662.40 986.27,662.40 984.39,662.40 982.51,662.40 980.63,662.40 978.75,662.40 976.88,662.40 975.00,662.40 973.12,662.40 971.24,662.40 969.36,662.40 967.48,662.40 965.61,662.40 963.73,662.40 961.85,662.40 959.97,662.40 958.09,662.40 956.22,662.40 954.34,662.40 952.46,662.40 950.58,662.40 948.70,662.40 946.83,662.40 944.95,662.40 943.07,662.40 941.19,662.40 939.31,662.40 937.44,662.40 935.56,662.40 933.68,662.40 931.80,662.40 929.92,662.40 928.05,662.40 926.17,662.40 924.29,662.40 922.41,662.40 920.53,662.40 918.66,662.40 916.78,662.40 914.90,662.40 913.02,662.40 911.14,662.40 909.27,662.40 907.39,662.40 905.51,662.40 903.63,662.40 901.75,662.40 899.87,662.40 898.00,662.40 896.12,662.40 894.24,662.40 892.36,662.40 890.48,662.40 888.61,662.40 886.73,662.40 884.85,662.40 882.97,662.40 881.09,662.40 879.22,662.40 877.34,662.40 875.46,662.40 873.58,662.40 871.70,662.40 869.83,662.40 867.95,662.40 866.07,662.40 864.19,662.40 862.31,662.40 860.44,662.40 858.56,662.40 856.68,662.40 854.80,662.40 852.92,662.40 851.05,662.40 849.17,662.40 847.29,662.40 845.41,662.40 843.53,662.40 841.66,662.40 839.78,662.40 837.90,662.40 836.02,662.40 834.14,662.40 832.26,662.40 830.39,662.40 828.51,662.40 826.63,662.40 824.75,662.40 822.87,662.40 821.00,662.40 819.12,662.40 817.24,662.40 815.36,662.40 813.48,662.40 811.61,662.40 809.73,662.40 807.85,662.40 805.97,662.40 804.09,662.40 802.22,662.40 800.34,662.40 798.46,662.40 796.58,662.40 794.70,662.40 792.83,662.40 790.95,662.40 789.07,662.40 787.19,662.40 785.31,662.40 783.44,662.40 781.56,662.40 779.68,662.40 777.80,662.40 775.92,662.40 774.05,662.40 772.17,662.40 770.29,662.40 768.41,662.40 766.53,662.40 764.65,662.40 762.78,662.40 760.90,662.40 759.02,662.40 757.14,662.40 755.26,662.40 753.39,662.40 751.51,662.40 749.63,662.40 747.75,662.40 745.87,662.40 744.00,662.40 742.12,662.40 740.24,662.40 738.36,662.40 736.48,662.40 734.61,662.40 732.73,662.40 730.85,662.40 728.97,662.40 727.09,662.40 725.22,662.40 723.34,662.40 721.46,662.40 719.58,662.40 717.70,662.40 715.83,662.40 713.95,662.40 712.07,662.40 710.19,662.40 708.31,662.40 706.44,662.40 704.56,662.40 702.68,662.40 700.80,662.40 698.92,662.40 697.04,662.40 695.17,662.40 693.29,662.40 691.41,662.40 689.53,662.40 687.65,662.40 685.78,662.40 683.90,662.40 682.02,662.40 680.14,662.40 678.26,662.40 676.39,662.40 674.51,662.40 672.63,662.40 670.75,662.40 668.87,662.40 667.00,662.40 665.12,662.40 663.24,662.40 661.36,662.40 659.48,662.40 657.61,662.40 655.73,662.40 653.85,662.40 651.97,662.40 650.09,662.40 648.22,662.40 646.34,662.40 644.46,662.40 642.58,662.40 640.70,662.40 638.83,662.40 636.95,662.40 635.07,662.40 633.19,662.40 631.31,662.40 629.43,662.40 627.56,662.40 625.68,662.40 623.80,662.40 621.92,662.40 620.04,662.40 618.17,662.40 616.29,662.40 614.41,662.40 612.53,662.40 610.65,662.40 608.78,662.40 606.90,662.40 605.02,662.40 603.14,662.40 601.26,662.40 599.39,662.40 597.51,662.40 595.63,662.40 593.75,662.40 591.87,662.40 590.00,662.40 588.12,662.40 586.24,662.40 584.36,662.40 582.48,662.40 580.61,662.40 578.73,662.40 576.85,662.40 574.97,662.40 573.09,662.40 571.22,662.40 569.34,662.40 567.46,662.40 565.58,662.40 563.70,662.40 561.82,662.40 559.95,662.40 558.07,662.40 556.19,662.40 554.31,662.40 552.43,662.40 550.56,662.40 548.68,662.40 546.80,662.40 544.92,662.40 543.04,662.40 541.17,662.40 539.29,662.40 537.41,662.40 535.53,662.40 533.65,662.40 531.78,662.40 529.90,662.40 528.02,662.40 526.14,662.40 524.26,662.40 522.39,662.40 520.51,662.40 518.63,662.40 516.75,662.40 514.87,662.40 513.00,662.40 511.12,662.40 509.24,662.40 507.36,662.40 505.48,662.40 503.61,662.40 501.73,662.40 499.85,662.40 497.97,662.40 496.09,662.40 494.21,662.40 492.34,662.40 490.46,662.40 488.58,662.40 486.70,662.40 484.82,662.40 482.95,662.40 481.07,662.40 479.19,662.40 477.31,662.40 475.43,662.40 473.56,662.40 471.68,662.40 469.80,662.40 467.92,662.40 466.04,662.40 464.17,662.40 462.29,662.40 460.41,662.40 458.53,662.40 456.65,662.40 454.78,662.40 452.90,662.40 451.02,662.40 449.14,662.40 447.26,662.40 445.39,662.40 443.51,662.40 441.63,662.40 439.75,662.40 437.87,662.40 436.00,662.40 434.12,662.40 432.24,662.40 430.36,662.40 428.48,662.40 426.60,662.40 424.73,662.40 422.85,662.40 420.97,662.40 419.09,662.40 417.21,662.40 415.34,662.40 413.46,662.40 411.58,662.40 409.70,662.40 407.82,662.40 405.95,662.40 404.07,662.40 402.19,662.40 400.31,662.40 398.43,662.40 396.56,662.40 394.68,662.40 392.80,662.40 390.92,662.40 389.04,662.40 387.17,662.40 385.29,662.40 383.41,662.40 381.53,662.40 379.65,662.40 377.78,662.40 375.90,662.40 374.02,662.40 372.14,662.40 370.26,662.40 368.39,662.40 366.51,662.40 364.63,662.40 362.75,662.40 360.87,662.40 358.99,662.40 357.12,662.40 355.24,662.40 353.36,662.40 351.48,662.40 349.60,662.40 347.73,662.40 345.85,662.40 343.97,662.40 342.09,662.40 340.21,662.40 338.34,662.40 336.46,662.40 334.58,662.40 332.70,662.40 330.82,662.40 328.95,662.40 327.07,662.40 325.19,662.40 323.31,662.40 321.43,662.40 319.56,662.40 317.68,662.40 315.80,662.40 313.92,662.40 312.04,662.40 310.17,662.40 308.29,662.40 306.41,662.40 304.53,662.40 302.65,662.40 300.78,662.40 298.90,662.40 297.02,662.40 295.14,662.40 293.26,662.40 291.38,662.40 289.51,662.40 287.63,662.40 285.75,662.40 283.87,662.40 281.99,662.40 280.12,662.40 278.24,662.40 276.36,662.40 274.48,662.40 272.60,662.40 270.73,662.40 268.85,662.40 266.97,662.40 265.09,662.40 263.21,662.40 261.34,662.40 259.46,662.40 257.58,662.40 255.70,662.40 253.82,662.40 251.95,662.40 250.07,662.40 248.19,662.40 246.31,662.40 244.43,662.40 242.56,662.40 240.68,662.40 238.80,662.40 236.92,662.40 235.04,662.40 233.17,662.40 231.29,662.40 229.41,662.40 227.53,662.40 225.65,662.40 223.77,662.40 221.90,662.40 220.02,662.40 218.14,662.40 216.26,662.40 214.38,662.40 212.51,662.40 210.63,662.40 208.75,662.40 206.87,662.40 204.99,662.40 203.12,662.40 201.24,662.40 199.36,662.40 197.48,662.40 195.60,662.40 193.73,662.40 191.85,662.40 189.97,662.40 188.09,662.40 186.21,662.40 184.34,662.40 182.46,662.40 180.58,662.40 178.70,662.40 176.82,662.40 174.95,662.40 173.07,662.40 171.19,662.40 169.31,662.40 167.43,662.40 165.56,662.40 163.68,662.40 161.80,662.40 159.92,662.40 158.04,662.40 156.16,662.40 154.29,662.40 152.41,662.40 150.53,662.40 148.65,662.40 146.77,662.40 144.90,662.40 143.02,662.40 141.14,662.40 139.26,662.40 137.38,662.40 135.51,662.40 133.63,662.40 131.75,662.40 129.87,662.40 127.99,662.40 126.12,662.40 124.24,662.40 122.36,662.40 120.48,662.40 118.60,662.40 116.73,662.40 114.85,662.40 112.97,662.40 111.09,662.40 109.21,662.40 107.34,662.40 105.46,662.40 103.58,662.40 101.70,662.40 99.82,662.40 97.95,662.40 96.07,662.40 94.19,662.40 92.31,662.40 90.43,662.40 88.55,662.40 86.68,662.40 84.80,662.40 82.92,662.40 81.04,662.40 79.16,662.40 77.29,662.40 75.41,662.40 73.53,662.40 71.65,662.40 69.77,662.40 67.90,662.40 66.02,662.40 64.14,662.40 "/>
	</g>
</g>
	</g>
	<g id="gnuplot_plot_2"><title>Mean</title>
<g fill="none" color="white" stroke="rgb( 31, 120, 180)" stroke-width="2.00" stroke-linecap="butt" stroke-linejoin="miter">
</g>
<g fill="none" color="black" stroke="currentColor" stroke-width="2.00" stroke-linecap="butt" stroke-linejoin="miter">
	<g transform="translate(1145.75,84.91)" stroke="none" fill="black" font-family="Helvetica" font-size="12.00" text-anchor="start">
		<text><tspan font-family="Helvetica">Mean</tspan></text>
	</g>
</g>
<g fill="none" color="black" stroke="currentColor" stroke-width="2.00" stroke-linecap="butt" stroke-linejoin="miter">
	<path stroke="rgb( 31, 120, 180)" d="M1094.80,81.01 L1137.36,81.01 M273.84,662.40 L273.84,54.01  "/></g>
	</g>
	<g id="gnuplot_plot_3"><title>"Clean" sample</title>
<g fill="none" color="white" stroke="rgb( 31, 120, 180)" stroke-width="1.00" stroke-linecap="butt" stroke-linejoin="miter">
</g>
<g fill="none" color="black" stroke="currentColor" stroke-width="1.00" stroke-linecap="butt" stroke-linejoin="miter">
	<g transform="translate(1145.75,102.91)" stroke="none" fill="black" font-family="Helvetica" font-size="12.00" text-anchor="start">
		<text><tspan font-family="Helvetica">"Clean" sample</tspan></text>
	</g>
</g>
<g fill="none" color="black" stroke="currentColor" stroke-width="1.00" stroke-linecap="butt" stroke-linejoin="miter">
	<use xlink:href="#gpPt6" transform="translate(441.89,656.32) scale(3.38)" color="rgb( 31, 120, 180)"/>
	<use xlink:href="#gpPt6" transform="translate(436.05,650.23) scale(3.38)" color="rgb( 31, 120, 180)"/>
	<use xlink:href="#gpPt6" transform="translate(432.89,644.15) scale(3.38)" color="rgb( 31, 120, 180)"/>
	<use xlink:href="#gpPt6" transform="translate(405.07,638.06) scale(3.38)" color="rgb( 31, 120, 180)"/>
	<use xlink:href="#gpPt6" transform="translate(398.46,631.98) scale(3.38)" color="rgb( 31, 120, 180)"/>
	<use xlink:href="#gpPt6" transform="translate(383.95,625.90) scale(3.38)" color="rgb( 31, 120, 180)"/>
	<use xlink:href="#gpPt6" transform="translate(382.17,619.81) scale(3.38)" color="rgb( 31, 120, 180)"/>
	<use xlink:href="#gpPt6" transform="translate(376.61,613.73) scale(3.38)" color="rgb( 31, 120, 180)"/>
	<use xlink:href="#gpPt6" transform="translate(369.38,607.64) scale(3.38)" color="rgb( 31, 120, 180)"/>
	<use xlink:href="#gpPt6" transform="translate(363.82,601.56) scale(3.38)" color="rgb( 31, 120, 180)"/>
	<use xlink:href="#gpPt6" transform="translate(353.19,595.48) scale(3.38)" color="rgb( 31, 120, 180)"/>
	<use xlink:href="#gpPt6" transform="translate(347.89,589.39) scale(3.38)" color="rgb( 31, 120, 180)"/>
	<use xlink:href="#gpPt6" transform="translate(341.14,583.31) scale(3.38)" color="rgb( 31, 120, 180)"/>
	<use xlink:href="#gpPt6" transform="translate(341.66,577.23) scale(3.38)" color="rgb( 31, 120, 180)"/>
	<use xlink:href="#gpPt6" transform="translate(334.21,571.14) scale(3.38)" color="rgb( 31, 120, 180)"/>
	<use xlink:href="#gpPt6" transform="translate(336.11,565.06) scale(3.38)" color="rgb( 31, 120, 180)"/>
	<use xlink:href="#gpPt6" transform="translate(328.95,558.97) scale(3.38)" color="rgb( 31, 120, 180)"/>
	<use xlink:href="#gpPt6" transform="translate(324.04,552.89) scale(3.38)" color="rgb( 31, 120, 180)"/>
	<use xlink:href="#gpPt6" transform="translate(319.08,546.81) scale(3.38)" color="rgb( 31, 120, 180)"/>
	<use xlink:href="#gpPt6" transform="translate(318.26,540.72) scale(3.38)" color="rgb( 31, 120, 180)"/>
	<use xlink:href="#gpPt6" transform="translate(316.87,534.64) scale(3.38)" color="rgb( 31, 120, 180)"/>
	<use xlink:href="#gpPt6" transform="translate(306.30,522.47) scale(3.38)" color="rgb( 31, 120, 180)"/>
	<use xlink:href="#gpPt6" transform="translate(304.39,516.39) scale(3.38)" color="rgb( 31, 120, 180)"/>
	<use xlink:href="#gpPt6" transform="translate(305.80,510.30) scale(3.38)" color="rgb( 31, 120, 180)"/>
	<use xlink:href="#gpPt6" transform="translate(311.40,504.22) scale(3.38)" color="rgb( 31, 120, 180)"/>
	<use xlink:href="#gpPt6" transform="translate(302.91,498.13) scale(3.38)" color="rgb( 31, 120, 180)"/>
	<use xlink:href="#gpPt6" transform="translate(295.08,492.05) scale(3.38)" color="rgb( 31, 120, 180)"/>
	<use xlink:href="#gpPt6" transform="translate(290.58,485.97) scale(3.38)" color="rgb( 31, 120, 180)"/>
	<use xlink:href="#gpPt6" transform="translate(290.76,479.88) scale(3.38)" color="rgb( 31, 120, 180)"/>
	<use xlink:href="#gpPt6" transform="translate(286.47,473.80) scale(3.38)" color="rgb( 31, 120, 180)"/>
	<use xlink:href="#gpPt6" transform="translate(284.40,467.72) scale(3.38)" color="rgb( 31, 120, 180)"/>
	<use xlink:href="#gpPt6" transform="translate(282.84,461.63) scale(3.38)" color="rgb( 31, 120, 180)"/>
	<use xlink:href="#gpPt6" transform="translate(284.56,455.55) scale(3.38)" color="rgb( 31, 120, 180)"/>
	<use xlink:href="#gpPt6" transform="translate(278.93,449.46) scale(3.38)" color="rgb( 31, 120, 180)"/>
	<use xlink:href="#gpPt6" transform="translate(273.30,437.30) scale(3.38)" color="rgb( 31, 120, 180)"/>
	<use xlink:href="#gpPt6" transform="translate(272.99,431.21) scale(3.38)" color="rgb( 31, 120, 180)"/>
	<use xlink:href="#gpPt6" transform="translate(318.88,425.13) scale(3.38)" color="rgb( 31, 120, 180)"/>
	<use xlink:href="#gpPt6" transform="translate(268.59,419.04) scale(3.38)" color="rgb( 31, 120, 180)"/>
	<use xlink:href="#gpPt6" transform="translate(267.19,412.96) scale(3.38)" color="rgb( 31, 120, 180)"/>
	<use xlink:href="#gpPt6" transform="translate(268.07,406.88) scale(3.38)" color="rgb( 31, 120, 180)"/>
	<use xlink:href="#gpPt6" transform="translate(265.81,400.79) scale(3.38)" color="rgb( 31, 120, 180)"/>
	<use xlink:href="#gpPt6" transform="translate(261.48,394.71) scale(3.38)" color="rgb( 31, 120, 180)"/>
	<use xlink:href="#gpPt6" transform="translate(262.85,388.62) scale(3.38)" color="rgb( 31, 120, 180)"/>
	<use xlink:href="#gpPt6" transform="translate(267.26,382.54) scale(3.38)" color="rgb( 31, 120, 180)"/>
	<use xlink:href="#gpPt6" transform="translate(258.08,376.46) scale(3.38)" color="rgb( 31, 120, 180)"/>
	<use xlink:href="#gpPt6" transform="translate(256.11,370.37) scale(3.38)" color="rgb( 31, 120, 180)"/>
	<use xlink:href="#gpPt6" transform="translate(253.16,364.29) scale(3.38)" color="rgb( 31, 120, 180)"/>
	<use xlink:href="#gpPt6" transform="translate(267.92,358.20) scale(3.38)" color="rgb( 31, 120, 180)"/>
	<use xlink:href="#gpPt6" transform="translate(250.71,352.12) scale(3.38)" color="rgb( 31, 120, 180)"/>
	<use xlink:href="#gpPt6" transform="translate(249.15,346.04) scale(3.38)" color="rgb( 31, 120, 180)"/>
	<use xlink:href="#gpPt6" transform="translate(254.81,339.95) scale(3.38)" color="rgb( 31, 120, 180)"/>
	<use xlink:href="#gpPt6" transform="translate(243.81,333.87) scale(3.38)" color="rgb( 31, 120, 180)"/>
	<use xlink:href="#gpPt6" transform="translate(259.03,327.79) scale(3.38)" color="rgb( 31, 120, 180)"/>
	<use xlink:href="#gpPt6" transform="translate(262.65,321.70) scale(3.38)" color="rgb( 31, 120, 180)"/>
	<use xlink:href="#gpPt6" transform="translate(243.50,315.62) scale(3.38)" color="rgb( 31, 120, 180)"/>
	<use xlink:href="#gpPt6" transform="translate(239.87,309.53) scale(3.38)" color="rgb( 31, 120, 180)"/>
	<use xlink:href="#gpPt6" transform="translate(235.73,303.45) scale(3.38)" color="rgb( 31, 120, 180)"/>
	<use xlink:href="#gpPt6" transform="translate(236.81,297.37) scale(3.38)" color="rgb( 31, 120, 180)"/>
	<use xlink:href="#gpPt6" transform="translate(231.51,291.28) scale(3.38)" color="rgb( 31, 120, 180)"/>
	<use xlink:href="#gpPt6" transform="translate(228.34,285.20) scale(3.38)" color="rgb( 31, 120, 180)"/>
	<use xlink:href="#gpPt6" transform="translate(271.16,279.11) scale(3.38)" color="rgb( 31, 120, 180)"/>
	<use xlink:href="#gpPt6" transform="translate(228.37,273.03) scale(3.38)" color="rgb( 31, 120, 180)"/>
	<use xlink:href="#gpPt6" transform="translate(229.06,266.95) scale(3.38)" color="rgb( 31, 120, 180)"/>
	<use xlink:href="#gpPt6" transform="translate(226.62,260.86) scale(3.38)" color="rgb( 31, 120, 180)"/>
	<use xlink:href="#gpPt6" transform="translate(224.27,254.78) scale(3.38)" color="rgb( 31, 120, 180)"/>
	<use xlink:href="#gpPt6" transform="translate(223.82,248.69) scale(3.38)" color="rgb( 31, 120, 180)"/>
	<use xlink:href="#gpPt6" transform="translate(223.26,242.61) scale(3.38)" color="rgb( 31, 120, 180)"/>
	<use xlink:href="#gpPt6" transform="translate(221.94,236.53) scale(3.38)" color="rgb( 31, 120, 180)"/>
	<use xlink:href="#gpPt6" transform="translate(218.56,230.44) scale(3.38)" color="rgb( 31, 120, 180)"/>
	<use xlink:href="#gpPt6" transform="translate(219.21,224.36) scale(3.38)" color="rgb( 31, 120, 180)"/>
	<use xlink:href="#gpPt6" transform="translate(220.09,218.28) scale(3.38)" color="rgb( 31, 120, 180)"/>
	<use xlink:href="#gpPt6" transform="translate(217.87,212.19) scale(3.38)" color="rgb( 31, 120, 180)"/>
	<use xlink:href="#gpPt6" transform="translate(213.02,206.11) scale(3.38)" color="rgb( 31, 120, 180)"/>
	<use xlink:href="#gpPt6" transform="translate(210.14,200.02) scale(3.38)" color="rgb( 31, 120, 180)"/>
	<use xlink:href="#gpPt6" transform="translate(208.04,193.94) scale(3.38)" color="rgb( 31, 120, 180)"/>
	<use xlink:href="#gpPt6" transform="translate(208.48,187.86) scale(3.38)" color="rgb( 31, 120, 180)"/>
	<use xlink:href="#gpPt6" transform="translate(208.93,181.77) scale(3.38)" color="rgb( 31, 120, 180)"/>
	<use xlink:href="#gpPt6" transform="translate(204.76,175.69) scale(3.38)" color="rgb( 31, 120, 180)"/>
	<use xlink:href="#gpPt6" transform="translate(203.62,169.60) scale(3.38)" color="rgb( 31, 120, 180)"/>
	<use xlink:href="#gpPt6" transform="translate(202.21,163.52) scale(3.38)" color="rgb( 31, 120, 180)"/>
	<use xlink:href="#gpPt6" transform="translate(230.40,157.44) scale(3.38)" color="rgb( 31, 120, 180)"/>
	<use xlink:href="#gpPt6" transform="translate(200.21,151.35) scale(3.38)" color="rgb( 31, 120, 180)"/>
	<use xlink:href="#gpPt6" transform="translate(199.63,145.27) scale(3.38)" color="rgb( 31, 120, 180)"/>
	<use xlink:href="#gpPt6" transform="translate(197.02,139.18) scale(3.38)" color="rgb( 31, 120, 180)"/>
	<use xlink:href="#gpPt6" transform="translate(195.65,133.10) scale(3.38)" color="rgb( 31, 120, 180)"/>
	<use xlink:href="#gpPt6" transform="translate(192.97,127.02) scale(3.38)" color="rgb( 31, 120, 180)"/>
	<use xlink:href="#gpPt6" transform="translate(192.49,120.93) scale(3.38)" color="rgb( 31, 120, 180)"/>
	<use xlink:href="#gpPt6" transform="translate(190.99,114.85) scale(3.38)" color="rgb( 31, 120, 180)"/>
	<use xlink:href="#gpPt6" transform="translate(191.80,108.77) scale(3.38)" color="rgb( 31, 120, 180)"/>
	<use xlink:href="#gpPt6" transform="translate(188.84,102.68) scale(3.38)" color="rgb( 31, 120, 180)"/>
	<use xlink:href="#gpPt6" transform="translate(186.97,96.60) scale(3.38)" color="rgb( 31, 120, 180)"/>
	<use xlink:href="#gpPt6" transform="translate(187.93,90.51) scale(3.38)" color="rgb( 31, 120, 180)"/>
	<use xlink:href="#gpPt6" transform="translate(184.32,84.43) scale(3.38)" color="rgb( 31, 120, 180)"/>
	<use xlink:href="#gpPt6" transform="translate(212.41,78.35) scale(3.38)" color="rgb( 31, 120, 180)"/>
	<use xlink:href="#gpPt6" transform="translate(184.43,72.26) scale(3.38)" color="rgb( 31, 120, 180)"/>
	<use xlink:href="#gpPt6" transform="translate(180.21,66.18) scale(3.38)" color="rgb( 31, 120, 180)"/>
	<use xlink:href="#gpPt6" transform="translate(179.65,60.09) scale(3.38)" color="rgb( 31, 120, 180)"/>
	<use xlink:href="#gpPt6" transform="translate(179.37,54.01) scale(3.38)" color="rgb( 31, 120, 180)"/>
	<use xlink:href="#gpPt6" transform="translate(1116.08,99.01) scale(3.38)" color="rgb( 31, 120, 180)"/>
</g>
	</g>
	<g id="gnuplot_plot_4"><title>Mild outliers</title>
<g fill="none" color="black" stroke="currentColor" stroke-width="1.00" stroke-linecap="butt" stroke-linejoin="miter">
	<g transform="translate(1145.75,120.91)" stroke="none" fill="black" font-family="Helvetica" font-size="12.00" text-anchor="start">
		<text><tspan font-family="Helvetica">Mild outliers</tspan></text>
	</g>
</g>
<g fill="none" color="black" stroke="currentColor" stroke-width="1.00" stroke-linecap="butt" stroke-linejoin="miter">
	<use xlink:href="#gpPt6" transform="translate(465.16,443.38) scale(3.38)" color="rgb(  5, 127,   0)"/>
	<use xlink:href="#gpPt6" transform="translate(1116.08,117.01) scale(3.38)" color="rgb(  5, 127,   0)"/>
</g>
	</g>
	<g id="gnuplot_plot_5"><title>Severe outliers</title>
<g fill="none" color="black" stroke="currentColor" stroke-width="1.00" stroke-linecap="butt" stroke-linejoin="miter">
	<g transform="translate(1145.75,138.91)" stroke="none" fill="black" font-family="Helvetica" font-size="12.00" text-anchor="start">
		<text><tspan font-family="Helvetica">Severe outliers</tspan></text>
	</g>
</g>
<g fill="none" color="black" stroke="currentColor" stroke-width="1.00" stroke-linecap="butt" stroke-linejoin="miter">
	<use xlink:href="#gpPt6" transform="translate(886.06,528.55) scale(3.38)" color="rgb(  7,  26,  28)"/>
	<use xlink:href="#gpPt6" transform="translate(1116.08,135.01) scale(3.38)" color="rgb(  7,  26,  28)"/>
</g>
	</g>
	<g id="gnuplot_plot_6"><title>gnuplot_plot_6</title>
<g fill="none" color="white" stroke="rgb(  7,  26,  28)" stroke-width="2.00" stroke-linecap="butt" stroke-linejoin="miter">
</g>
<g fill="none" color="black" stroke="currentColor" stroke-width="2.00" stroke-linecap="butt" stroke-linejoin="miter">
	<path stroke="rgb(  5, 127,   0)" d="M80.29,662.40 L80.29,54.01  "/></g>
	</g>
	<g id="gnuplot_plot_7"><title>gnuplot_plot_7</title>
<g fill="none" color="black" stroke="currentColor" stroke-width="2.00" stroke-linecap="butt" stroke-linejoin="miter">
	<path stroke="rgb(  5, 127,   0)" d="M443.95,662.40 L443.95,54.01  "/></g>
	</g>
	<g id="gnuplot_plot_8"><title>gnuplot_plot_8</title>
<g fill="none" color="black" stroke="currentColor" stroke-width="2.00" stroke-linecap="butt" stroke-linejoin="miter">
</g>
	</g>
	<g id="gnuplot_plot_9"><title>gnuplot_plot_9</title>
<g fill="none" color="black" stroke="currentColor" stroke-width="2.00" stroke-linecap="butt" stroke-linejoin="miter">
	<path stroke="rgb(  7,  26,  28)" d="M580.33,662.40 L580.33,54.01  "/></g>
	</g>
<g fill="none" color="black" stroke="currentColor" stroke-width="2.00" stroke-linecap="butt" stroke-linejoin="miter">
</g>
<g fill="none" color="black" stroke="black" stroke-width="1.00" stroke-linecap="butt" stroke-linejoin="miter">
</g>
<g fill="none" color="black" stroke="currentColor" stroke-width="1.00" stroke-linecap="butt" stroke-linejoin="miter">
	<path stroke="black" d="M64.14,54.01 L64.14,662.40 L1001.29,662.40 L1001.29,54.01 L64.14,54.01 Z  "/></g>
<g fill="none" color="black" stroke="currentColor" stroke-width="1.00" stroke-linecap="butt" stroke-linejoin="miter">
	<g transform="translate(532.71,30.91)" stroke="none" fill="black" font-family="Helvetica" font-size="12.00" text-anchor="middle">
		<text><tspan font-family="Helvetica">mmap_read_100mil_exists</tspan></text>
	</g>
</g>
<g fill="none" color="black" stroke="currentColor" stroke-width="1.00" stroke-linecap="butt" stroke-linejoin="miter">
</g>
</g>
</svg>